<svg width="38" height="40" viewBox="0 0 38 40" fill="none" xmlns="http://www.w3.org/2000/svg">
<path d="M36.48 8.95425L20.4031 0.35378C19.9735 0.121723 19.4908 0 19 0C18.5092 0 18.0265 0.121723 17.5969 0.35378L1.52 8.95782C1.06087 9.20343 0.677612 9.56505 0.410239 10.0049C0.142866 10.4448 0.00118797 10.9468 0 11.4585V28.5415C0.00118797 29.0532 0.142866 29.5552 0.410239 29.9951C0.677612 30.4349 1.06087 30.7966 1.52 31.0422L17.5969 39.6462C18.0265 39.8783 18.5092 40 19 40C19.4908 40 19.9735 39.8783 20.4031 39.6462L36.48 31.0422C36.9391 30.7966 37.3224 30.4349 37.5898 29.9951C37.8571 29.5552 37.9988 29.0532 38 28.5415V11.4603C37.9998 10.9477 37.8586 10.4446 37.5912 10.0037C37.3237 9.56276 36.9399 9.20029 36.48 8.95425ZM19 2.85444L33.6793 10.7136L28.2388 13.6233L13.5594 5.76413L19 2.85444ZM19 18.5728L4.32067 10.7136L10.5158 7.3967L25.1951 15.2559L19 18.5728ZM35.0769 28.5487L20.4615 36.3704V21.0431L26.3077 17.9155V24.2886C26.3077 24.6676 26.4617 25.0311 26.7358 25.299C27.0099 25.567 27.3816 25.7176 27.7692 25.7176C28.1569 25.7176 28.5286 25.567 28.8027 25.299C29.0768 25.0311 29.2308 24.6676 29.2308 24.2886V16.3508L35.0769 13.2232V28.5415V28.5487Z" fill="#00965B"/>
</svg>
